<?xml version="1.0" standalone="no"?>
<!DOCTYPE svg PUBLIC "-//W3C//DTD SVG 20010904//EN"
 "http://www.w3.org/TR/2001/REC-SVG-20010904/DTD/svg10.dtd">
<svg version="1.0" xmlns="http://www.w3.org/2000/svg"
 width="300.000000pt" height="298.000000pt" viewBox="0 0 300.000000 298.000000"
 preserveAspectRatio="xMidYMid meet">
<metadata>
Created by potrace 1.10, written by Peter Selinger 2001-2011
</metadata>
<g transform="translate(0.000000,298.000000) scale(0.100000,-0.100000)"
fill="#000000" stroke="none">
<path d="M1227 2453 c-4 -3 -7 -18 -7 -33 0 -21 7 -28 32 -35 22 -7 35 -18 39
-35 6 -23 7 -23 8 -3 1 24 -23 53 -45 53 -8 0 -14 9 -14 20 0 15 7 20 28 20
47 0 69 -34 75 -117 5 -62 3 -73 -14 -89 -19 -17 -19 -16 -21 37 -1 48 -2 49
-6 14 -2 -22 -1 -113 3 -203 7 -151 8 -161 22 -135 10 19 11 34 5 48 -6 12
-13 61 -17 109 -7 77 -5 89 11 107 19 21 19 19 25 -97 5 -97 6 -82 5 76 -1
141 -5 201 -14 218 -19 34 -97 64 -115 45z"/>
<path d="M1437 2360 c-69 -13 -51 -20 54 -20 98 0 102 1 75 15 -30 16 -67 17
-129 5z"/>
<path d="M1756 2355 c40 -7 88 -18 108 -25 l37 -12 -38 -34 c-20 -19 -44 -34
-52 -34 -13 0 -14 -2 -2 -9 11 -7 10 -11 -7 -20 -18 -9 -23 -8 -32 8 -7 14 -6
21 3 24 6 3 2 6 -11 6 -25 1 -23 -8 11 -46 14 -15 31 -23 51 -22 l31 1 -29 7
c-27 6 -28 7 -10 23 17 15 24 15 83 2 35 -8 65 -13 68 -11 8 9 -88 36 -104 30
-12 -5 -14 -3 -8 8 17 29 49 59 64 59 12 1 12 3 -4 12 -31 18 -155 48 -194 47
-26 -1 -15 -5 35 -14z"/>
<path d="M1634 2324 c22 -8 47 -20 55 -27 16 -14 129 -42 137 -34 2 2 -21 9
-51 16 -31 7 -75 23 -98 37 -23 13 -51 23 -62 23 -12 0 -4 -6 19 -15z"/>
<path d="M775 2099 c-253 -126 -464 -230 -470 -233 -5 -2 -8 -6 -5 -8 9 -10
140 44 133 55 -4 6 0 8 10 4 23 -9 79 13 74 28 -3 7 18 23 51 39 l57 28 -23
-25 c-13 -14 -35 -28 -49 -32 -14 -3 -23 -8 -20 -11 2 -3 26 4 53 15 27 11 45
20 40 20 -23 2 46 57 116 92 70 35 78 37 93 23 8 -9 13 -19 11 -23 -3 -4 -50
-24 -106 -45 -55 -21 -99 -40 -97 -42 2 -2 89 28 193 67 104 39 200 75 214 80
14 4 66 23 115 42 l90 34 3 61 c2 46 0 62 -10 61 -7 0 -220 -104 -473 -230z
m475 166 c0 -66 -12 -70 -59 -21 l-33 34 38 21 c22 11 42 20 47 21 4 0 7 -25
7 -55z m-70 -30 c24 -25 29 -36 19 -39 -8 -3 -83 -30 -168 -62 -153 -56 -177
-60 -189 -26 -3 9 275 159 299 161 3 1 20 -15 39 -34z"/>
<path d="M2000 2273 c36 -20 91 -58 123 -85 31 -27 57 -45 57 -39 0 14 -107
97 -171 131 -80 42 -87 37 -9 -7z"/>
<path d="M1925 2175 c39 -7 81 -14 95 -14 24 1 24 1 -3 9 -15 5 -58 11 -95 14
l-67 5 70 -14z"/>
<path d="M1469 2131 c-29 -29 -29 -31 -27 -133 l2 -103 5 108 c6 100 8 110 31
127 18 14 40 19 80 18 l55 -1 -52 -6 c-83 -10 -97 -31 -101 -144 -2 -50 -8
-96 -13 -102 -5 -5 -9 -39 -9 -76 0 -58 3 -70 24 -90 21 -20 35 -23 110 -24
47 -1 85 0 83 1 -2 2 -34 8 -72 13 -108 16 -110 19 -110 211 0 189 0 189 101
202 102 12 105 28 5 28 -78 0 -84 -2 -112 -29z m33 -396 c26 -22 27 -25 9 -25
-30 0 -61 46 -60 89 l1 36 10 -37 c5 -21 23 -49 40 -63z"/>
<path d="M2089 2144 c74 -23 111 -28 111 -14 0 7 -6 10 -14 7 -8 -3 -35 1 -62
9 -26 8 -54 14 -63 13 -9 -1 4 -7 28 -15z"/>
<path d="M1741 2143 c0 -5 17 -46 38 -93 36 -82 38 -85 76 -92 22 -4 63 -6 90
-6 28 0 40 3 28 5 -12 2 -40 24 -62 49 -23 24 -48 44 -57 44 -8 0 -29 23 -46
50 -19 31 -38 50 -49 50 -11 0 -19 -3 -18 -7z m75 -75 c8 -16 20 -28 27 -28 7
0 31 -18 52 -41 l40 -40 -55 7 c-30 4 -56 7 -56 8 -1 0 -18 39 -38 85 -35 82
-35 84 -10 60 14 -13 32 -36 40 -51z"/>
<path d="M1085 2074 c-482 -197 -681 -277 -749 -303 -50 -20 -20 -23 43 -6 36
11 58 22 54 28 -4 7 0 8 12 4 17 -7 140 21 131 30 -2 3 -30 -3 -61 -12 -63
-18 -85 -15 -33 4 18 7 48 19 66 27 33 14 57 11 47 -7 -4 -5 -1 -9 6 -9 15 0
362 100 368 106 9 8 -15 3 -174 -42 -99 -28 -172 -43 -182 -39 -15 6 -14 9 12
20 42 19 190 80 252 104 l51 20 30 -30 30 -31 109 31 c174 48 163 41 163 111
0 33 -3 60 -7 60 -5 -1 -80 -30 -168 -66z m161 -40 c-3 -7 -31 -21 -63 -30
-32 -9 -65 -19 -73 -22 -8 -3 19 30 60 72 l75 77 3 -42 c2 -23 1 -47 -2 -55z
m-111 6 c-87 -88 -126 -102 -167 -63 l-28 27 128 52 c70 29 129 53 132 53 2 1
-27 -31 -65 -69z"/>
<path d="M2196 2061 c-4 -5 -2 -12 4 -16 5 -3 10 -15 10 -26 0 -15 -5 -19 -17
-15 -36 10 -273 38 -285 33 -7 -2 19 -8 57 -12 109 -12 114 -15 71 -53 -31
-27 -33 -32 -16 -32 11 0 20 4 20 10 0 5 12 21 28 35 19 18 34 24 52 21 101
-20 100 -20 100 8 0 14 4 26 9 26 14 0 65 -69 94 -126 17 -33 34 -54 49 -57
l22 -6 -29 -31 c-16 -16 -23 -30 -16 -30 7 0 22 11 33 25 24 31 30 31 103 -3
63 -30 125 -90 125 -121 0 -10 9 -29 19 -43 l20 -25 -63 -62 -64 -63 -59 7
c-58 6 -63 9 -129 76 l-68 69 79 1 c44 1 85 0 90 -2 6 -1 28 -4 50 -6 31 -3
36 -2 23 7 -19 12 -77 16 -185 12 l-73 -2 0 -54 c0 -62 17 -87 58 -85 l27 2
-28 4 c-30 5 -47 34 -47 81 0 25 3 24 55 -28 44 -43 52 -56 39 -60 -16 -6 117
-30 161 -30 12 0 46 26 80 60 33 33 62 60 65 60 3 0 13 -13 23 -29 12 -21 17
-52 17 -115 l0 -86 -83 0 c-78 0 -85 2 -110 28 -27 28 -27 29 -9 45 13 12 36
17 72 17 31 0 50 4 45 9 -6 4 -94 6 -197 3 l-188 -4 0 -29 c0 -27 -1 -28 -82
-35 -64 -6 -76 -9 -53 -15 17 -4 58 -7 93 -8 34 0 62 -4 62 -8 0 -5 105 -8
233 -8 l232 0 3 70 c3 81 -14 137 -57 181 -15 16 -33 45 -40 64 -26 76 -73
114 -196 160 -66 24 -71 28 -97 79 -39 76 -118 155 -132 132z m247 -609 c13
-15 14 -21 4 -32 -10 -10 -9 -12 7 -6 17 6 46 -8 46 -23 0 -3 -38 -6 -85 -7
-47 0 -85 4 -85 8 0 12 -35 9 -48 -4 -9 -9 -15 -9 -24 0 -7 7 -30 13 -52 14
l-41 1 38 4 c33 4 37 7 37 34 l0 29 93 0 c78 0 97 -3 110 -18z"/>
<path d="M1585 1987 c-3 -7 -4 -28 -1 -47 4 -42 -2 -62 -18 -53 -6 3 -2 -3 8
-15 11 -12 27 -22 37 -22 9 0 19 -6 21 -12 3 -8 22 -12 49 -11 44 1 44 1 9 -7
l-35 -8 40 1 c53 3 51 21 -2 25 -47 3 -50 8 -28 38 19 25 19 58 0 94 -12 23
-22 30 -46 30 -16 0 -32 -6 -34 -13z m61 -28 c1 -15 4 -34 7 -44 4 -9 2 -26
-5 -38 l-11 -21 -9 23 c-5 13 -6 33 -2 43 4 14 0 21 -15 25 -12 3 -21 13 -21
25 0 15 6 19 28 16 21 -2 27 -8 28 -29z"/>
<path d="M1338 1930 c-24 -34 -23 -82 2 -98 18 -11 20 -23 20 -117 0 -87 -3
-105 -15 -105 -12 0 -15 18 -15 98 0 53 -5 104 -10 112 -7 10 -9 -19 -4 -95 4
-60 9 -113 11 -117 2 -5 13 -8 24 -8 18 0 19 7 18 113 -1 61 -4 141 -8 177
l-6 65 -17 -25z"/>
<path d="M778 1782 c-257 -87 -470 -161 -475 -166 -4 -5 1 -6 12 -3 11 3 37 8
58 12 21 3 35 10 32 15 -4 6 6 8 22 5 15 -3 53 1 83 10 53 14 35 14 -50 1 -19
-4 27 15 102 41 128 44 139 46 154 31 16 -15 11 -18 -65 -34 -44 -10 -79 -19
-77 -21 5 -5 26 -1 321 61 196 42 251 56 218 56 -6 0 -64 -11 -129 -25 -64
-14 -119 -23 -121 -22 -10 10 90 87 131 101 67 22 71 21 110 -20 l35 -37 60
13 61 13 0 63 c0 35 -3 64 -7 63 -5 -1 -218 -71 -475 -157z m468 61 c-3 -3
-12 0 -21 7 -20 17 -19 57 3 69 15 8 17 5 20 -31 2 -22 1 -43 -2 -45z m-76 43
c0 -8 11 -28 25 -44 l25 -30 -36 -7 c-32 -6 -40 -2 -71 29 l-36 35 24 9 c13 5
31 12 39 15 25 9 30 8 30 -7z m-304 -115 c-46 -47 -107 -64 -134 -37 -13 13
-13 16 -1 21 51 19 156 54 164 54 5 1 -8 -17 -29 -38z"/>
<path d="M1944 1911 c4 -5 29 -14 58 -20 54 -12 78 -9 31 4 l-28 8 30 7 c23 6
15 8 -33 9 -36 0 -61 -3 -58 -8z"/>
<path d="M2120 1911 c-32 -6 -29 -7 30 -14 36 -5 76 -10 90 -13 22 -4 22 -3
-5 10 -16 8 -41 12 -55 9 -20 -4 -22 -2 -10 6 18 13 9 13 -50 2z"/>
<path d="M2072 1874 c3 -3 28 -11 54 -19 27 -7 75 -23 106 -34 32 -12 68 -21
80 -20 22 1 22 1 -2 9 -203 66 -253 80 -238 64z"/>
<path d="M2395 1780 c14 -6 -1 -9 -50 -10 -38 -1 -64 -4 -57 -7 16 -6 5 -23
-15 -23 -10 0 -14 6 -10 20 3 11 1 20 -4 20 -5 0 -9 -11 -9 -25 0 -20 5 -25
24 -25 13 0 29 7 36 15 7 9 30 15 54 16 22 0 50 4 60 8 18 7 18 8 -5 14 -33 9
-48 7 -24 -3z"/>
<path d="M2435 1761 c-16 -6 -10 -9 25 -13 25 -3 47 -3 49 -1 15 12 -48 24
-74 14z"/>
<path d="M1075 1714 c-88 -24 -212 -59 -277 -76 -64 -18 -115 -35 -112 -39 11
-19 -46 -45 -129 -61 -109 -20 -38 -16 123 8 127 19 204 36 125 28 -27 -2 -68
-7 -90 -10 l-40 -6 24 25 c14 15 42 30 70 36 43 9 48 8 73 -16 l27 -26 98 13
c54 7 92 15 85 18 -7 2 -50 -1 -94 -8 -79 -11 -82 -11 -104 12 l-24 23 88 24
c48 13 125 34 172 47 98 28 116 29 124 9 3 -8 11 -15 17 -15 8 0 6 7 -5 19
-15 17 -15 19 -1 25 9 3 18 6 21 6 2 0 3 -24 1 -53 -1 -38 -6 -53 -17 -54 -42
-5 -146 -24 -155 -28 -14 -7 124 6 154 15 24 6 26 11 29 68 2 46 0 62 -10 61
-7 -1 -85 -21 -173 -45z"/>
<path d="M1853 1747 c-49 -18 -48 -24 5 -31 80 -10 139 -60 167 -142 l13 -39
91 -3 c50 -1 91 0 91 3 0 3 -13 32 -29 64 -34 66 -85 121 -135 145 -40 19
-155 21 -203 3z m203 -16 c22 -10 57 -38 77 -62 l37 -43 -42 -43 c-23 -24 -50
-43 -59 -43 -11 0 -26 19 -42 53 -30 67 -68 103 -130 125 -42 15 -45 18 -25
24 48 13 143 8 184 -11z m144 -178 c0 -9 -16 -13 -47 -13 l-47 0 34 35 34 35
13 -22 c7 -13 12 -29 13 -35z"/>
<path d="M2313 1713 c-47 -3 -63 -8 -63 -18 0 -9 9 -15 23 -14 21 0 21 1 2 9
-14 6 -1 9 45 9 36 1 72 6 80 11 12 8 11 9 -5 8 -11 -1 -48 -3 -82 -5z"/>
<path d="M2420 1701 c0 -5 20 -11 45 -13 51 -4 60 6 14 16 -43 8 -59 8 -59 -3z"/>
<path d="M1535 1594 l-80 -13 71 4 c39 3 86 8 105 11 26 5 31 4 23 -5 -6 -7
-54 -17 -108 -23 -53 -6 -94 -13 -92 -15 5 -6 216 16 228 23 4 3 8 12 8 20 0
17 -41 17 -155 -2z"/>
<path d="M1789 1586 c-47 -32 -73 -87 -74 -156 l0 -55 128 -3 c86 -2 127 1
127 8 0 6 -6 8 -12 5 -7 -4 -5 0 5 8 11 9 17 28 17 52 0 21 -3 35 -7 32 -3 -4
-12 -2 -20 4 -10 9 -13 5 -12 -22 0 -28 2 -30 9 -14 7 19 8 19 15 2 5 -12 0
-26 -15 -43 -22 -22 -30 -24 -127 -24 l-103 0 0 33 c0 76 57 177 99 177 13 -1
13 -2 -3 -12 -17 -10 -16 -12 12 -24 35 -14 72 -67 72 -101 0 -16 6 -23 18
-22 10 0 12 3 5 6 -7 2 -13 14 -13 25 0 28 -37 86 -59 93 -13 4 -17 12 -14 25
12 46 88 6 118 -62 8 -18 14 -26 15 -17 0 24 -42 82 -70 96 -38 19 -72 16
-111 -11z"/>
<path d="M1325 1570 c-33 -4 -125 -15 -205 -24 -162 -19 -206 -29 -86 -20 l79
6 -42 -39 c-22 -22 -41 -44 -41 -49 0 -4 22 14 50 41 48 47 52 49 137 61 106
15 178 17 148 4 -11 -5 -39 -9 -62 -9 -23 -1 -44 -5 -47 -10 -3 -4 2 -27 11
-50 16 -41 17 -41 67 -41 28 0 75 -3 104 -6 36 -5 52 -3 52 5 0 7 -32 11 -100
11 -99 0 -101 0 -110 26 -19 48 -15 51 78 60 48 4 75 10 60 12 -38 5 -35 20 5
25 l32 4 -35 0 c-19 0 -62 -3 -95 -7z"/>
<path d="M1877 1565 c17 -7 38 -26 47 -42 8 -15 15 -22 16 -15 0 20 -56 72
-77 72 -11 -1 -6 -6 14 -15z"/>
<path d="M427 1537 c-22 -7 -36 -14 -34 -17 3 -3 -12 -6 -34 -6 -38 -1 -58 -9
-48 -19 9 -9 134 17 144 29 6 7 17 15 25 19 29 11 -12 6 -53 -6z"/>
<path d="M780 1505 c-52 -7 -128 -16 -169 -20 -40 -4 -68 -11 -61 -15 9 -6 9
-9 -1 -16 -7 -4 -14 -3 -17 4 -2 7 -18 11 -35 11 -22 -1 -25 -3 -12 -6 43 -11
47 -24 19 -55 -26 -26 -34 -28 -101 -28 l-73 0 0 29 c0 29 2 30 58 36 31 4 62
8 67 10 18 6 -59 5 -97 -1 -36 -6 -38 -8 -38 -45 l0 -39 683 2 682 3 3 63 c3
57 1 63 -15 60 -12 -2 -20 -15 -23 -38 l-5 -35 -162 0 c-89 -1 -165 -4 -169
-8 -4 -4 30 -7 76 -7 72 0 81 -2 70 -15 -10 -12 -45 -15 -194 -15 l-182 0 -69
70 c-79 79 -70 77 -235 55z m195 -36 l40 -40 -30 -25 c-30 -24 -32 -24 -259
-24 -229 0 -229 0 -211 20 13 14 25 18 39 14 18 -6 19 -5 8 8 -25 31 16 47
174 67 207 26 194 27 239 -20z m698 -41 l-6 -48 -51 0 c-29 0 -58 6 -65 13
-11 10 -13 10 -7 0 5 -10 -4 -13 -34 -13 -29 0 -40 4 -38 13 3 8 32 13 88 15
91 3 100 8 100 57 0 18 4 25 9 20 5 -6 7 -31 4 -57z m-628 -28 c18 -20 17 -20
-25 -20 -42 0 -43 0 -25 20 10 11 21 20 25 20 4 0 15 -9 25 -20z"/>
<path d="M1111 1291 c-9 -6 -14 -35 -15 -104 l-1 -95 121 1 120 1 0 45 c-1 34
3 46 14 46 10 0 16 -12 18 -37 2 -23 -1 -38 -8 -38 -6 0 -8 -4 -5 -10 3 -5 22
-10 41 -10 19 0 34 5 34 10 0 6 -4 10 -10 10 -5 0 -10 15 -10 34 0 46 -9 66
-28 66 -14 0 -14 -1 0 -12 9 -7 18 -32 20 -55 3 -34 0 -43 -13 -43 -12 0 -14
7 -11 31 5 35 -16 82 -34 75 -6 -2 -15 -1 -20 4 -5 4 -20 4 -33 -1 -19 -7 -22
-12 -13 -21 7 -7 12 -27 12 -46 0 -49 -24 -36 -31 17 -8 61 -38 77 -80 42 -28
-23 -18 -41 12 -22 24 14 34 9 26 -14 -4 -8 -16 -15 -28 -15 -12 0 -23 -8 -26
-20 -12 -47 -23 -13 -23 75 0 95 -3 103 -29 86z m21 -124 c2 -54 0 -67 -12
-67 -12 0 -15 16 -15 87 0 49 5 91 10 95 11 8 13 -6 17 -115z m120 -22 c2 -29
-1 -40 -11 -40 -10 0 -14 15 -15 53 -2 42 0 50 10 40 7 -7 14 -31 16 -53z m68
10 c0 -37 -4 -55 -12 -55 -24 0 -14 108 10 110 1 0 2 -25 2 -55z m-100 -27 c0
-4 -8 -8 -17 -8 -15 0 -16 -2 -3 -10 12 -8 11 -10 -7 -10 -20 0 -31 19 -18 31
7 8 45 5 45 -3z"/>
<path d="M1507 1286 c-12 -9 -14 -16 -8 -21 6 -3 11 -17 11 -31 0 -19 -5 -24
-23 -24 -49 0 -76 -70 -41 -104 9 -9 30 -15 47 -14 60 3 62 7 59 112 -3 100
-9 109 -45 82z m28 -174 c-11 -29 -17 -2 -19 83 -1 110 18 121 22 12 2 -44 0
-87 -3 -95z m-66 61 c1 10 9 17 21 17 16 0 20 -7 20 -35 0 -28 -4 -35 -20 -35
-11 0 -20 5 -20 12 0 6 -3 8 -7 4 -5 -4 1 -14 11 -22 15 -10 16 -14 5 -14 -23
0 -39 21 -39 50 0 34 12 47 21 23 7 -17 8 -17 8 0z"/>
<path d="M2353 1273 c-7 -3 -13 -11 -13 -18 0 -15 19 -24 38 -18 6 3 12 11 12
18 0 15 -19 24 -37 18z"/>
<path d="M410 1260 c0 -5 13 -7 28 -4 27 5 28 4 26 -28 -1 -24 0 -26 3 -5 2
15 8 27 14 27 5 0 9 5 9 10 0 6 -18 10 -40 10 -22 0 -40 -4 -40 -10z"/>
<path d="M520 1260 c0 -5 6 -10 14 -10 8 0 17 -12 19 -27 3 -22 4 -21 3 5 -2
23 2 32 14 32 12 0 15 -14 15 -80 0 -65 -3 -80 -15 -80 -12 0 -15 9 -12 40 l4
40 -52 0 -52 0 4 -40 c3 -33 0 -40 -14 -40 -10 0 -18 4 -18 10 0 5 -7 7 -15 4
-26 -10 -5 -24 36 -24 37 0 51 12 29 25 -5 3 -10 17 -10 31 0 21 4 24 40 24
36 0 40 -2 40 -25 0 -14 -7 -28 -15 -31 -30 -12 -14 -24 29 -24 46 0 68 13 41
24 -17 6 -22 121 -5 131 23 14 7 25 -35 25 -25 0 -45 -4 -45 -10z"/>
<path d="M1620 1260 c0 -5 5 -10 10 -10 6 0 10 -30 10 -70 0 -57 -3 -70 -16
-70 -8 0 -12 -4 -9 -10 3 -5 35 -10 70 -10 54 0 66 3 75 20 10 19 11 19 31 -1
31 -31 78 -22 106 19 l22 33 -21 25 c-12 13 -26 24 -32 24 -5 0 1 -11 14 -25
21 -23 22 -27 9 -52 l-13 -28 -4 35 c-2 19 -10 42 -18 51 -8 9 -11 19 -7 22 3
4 0 7 -8 7 -25 0 -59 -30 -74 -66 -12 -28 -19 -34 -44 -34 l-31 0 0 65 c0 51
3 65 15 65 8 0 15 5 15 10 0 6 -22 10 -50 10 -27 0 -50 -4 -50 -10z m60 -74
l0 -75 38 -4 c27 -3 22 -4 -21 -5 -56 -2 -57 -1 -47 19 7 11 10 47 8 80 -2 42
1 59 10 59 8 0 12 -22 12 -74z m126 -18 c0 -18 4 -42 9 -53 8 -20 8 -20 -13
-1 -24 21 -27 38 -12 67 14 26 17 24 16 -13z m54 -25 c0 -27 -4 -34 -17 -31
-25 5 -40 52 -23 73 19 23 40 1 40 -42z"/>
<path d="M2269 1214 c-17 -20 -12 -94 7 -114 12 -12 18 -12 34 -3 12 8 21 9
25 3 3 -6 20 -10 37 -10 23 0 29 4 24 16 -3 9 -6 36 -6 61 0 40 -2 44 -22 41
-21 -3 -23 -8 -20 -50 3 -30 0 -48 -7 -48 -6 0 -11 4 -11 10 0 5 -7 7 -15 4
-12 -5 -15 3 -17 32 -1 38 -1 38 -5 6 -3 -18 1 -40 8 -49 11 -13 10 -15 -6
-12 -16 3 -21 15 -26 52 -5 45 8 77 24 60 4 -3 7 -1 7 5 0 17 -15 15 -31 -4z
m111 -64 c0 -33 -4 -50 -12 -50 -9 0 -13 17 -13 50 0 34 4 50 12 50 9 0 13
-17 13 -50z"/>
<path d="M646 1199 c-49 -39 -23 -109 41 -109 30 0 63 34 63 64 0 25 -41 66
-65 66 -7 0 -24 -9 -39 -21z m91 -25 c7 -18 -5 -64 -16 -64 -4 0 -6 11 -3 25
2 14 -3 36 -13 51 -16 25 -16 25 5 14 12 -6 24 -18 27 -26z m-31 -10 c8 -32 0
-50 -25 -57 -39 -10 -69 51 -40 80 17 17 59 3 65 -23z"/>
<path d="M771 1209 c-19 -7 -22 -12 -13 -21 15 -15 16 -78 2 -78 -5 0 -10 -4
-10 -10 0 -5 15 -10 34 -10 l34 0 -5 44 c-6 45 11 71 28 45 5 -8 9 -9 9 -4 0
17 -19 40 -26 32 -4 -4 -12 -3 -18 2 -6 5 -21 5 -35 0z m29 -54 c0 -37 -4 -55
-12 -55 -24 0 -14 108 10 110 1 0 2 -25 2 -55z"/>
<path d="M1040 1210 c11 -8 8 -10 -15 -8 -23 2 -32 -2 -42 -24 -26 -52 25
-106 76 -78 31 16 26 28 -11 26 -23 -1 -33 4 -36 17 -3 14 4 17 32 17 19 0 37
4 41 10 7 11 -30 50 -47 50 -9 0 -8 -4 2 -10z m30 -26 c0 -9 -8 -10 -29 -4
-26 7 -30 5 -35 -16 -8 -30 -1 -42 28 -54 l21 -9 -22 0 c-31 -1 -56 39 -44 71
7 19 16 24 45 24 22 0 36 -5 36 -12z"/>
<path d="M1943 1208 c-13 -6 -23 -15 -23 -20 0 -5 5 -6 10 -3 6 3 10 -2 10
-12 0 -11 5 -24 12 -31 16 -16 -4 -16 -21 1 -11 10 -12 9 -6 -2 4 -8 2 -17 -6
-21 -10 -7 -10 -11 1 -25 11 -13 11 -18 1 -24 -7 -5 -11 -17 -9 -27 4 -26 80
-32 114 -9 24 15 32 49 15 59 -4 3 -6 -5 -4 -18 3 -13 -1 -27 -8 -31 -9 -6
-11 -3 -6 8 8 22 -18 40 -53 35 -31 -5 -60 14 -41 26 5 4 12 2 16 -4 3 -5 23
-9 43 -9 l37 2 -40 7 c-28 5 -33 8 -14 9 27 1 59 28 59 49 0 7 5 12 10 12 6 0
10 -13 10 -28 0 -34 31 -66 57 -59 16 4 15 5 -2 6 -12 0 -26 6 -33 13 -15 15
-16 65 -1 74 6 4 10 -1 8 -12 -7 -46 28 -80 69 -66 25 8 11 21 -17 16 -23 -5
-32 -2 -40 15 -11 20 -9 21 29 21 44 0 53 17 23 41 -16 13 -17 12 -4 -4 8 -9
10 -21 6 -25 -4 -4 -10 -1 -12 6 -3 7 -16 18 -30 23 -20 7 -28 6 -39 -8 -13
-17 -13 -17 -14 0 0 12 -8 17 -27 16 l-28 -1 25 -8 c14 -4 19 -8 13 -9 -7 -1
-13 -10 -13 -20 0 -37 -18 -30 -24 9 -6 42 -15 46 -53 28z m48 -44 c4 -21 2
-31 -5 -30 -21 3 -34 16 -38 39 -4 19 -1 24 16 23 14 -1 22 -10 27 -32z m24
-93 c3 -5 1 -12 -5 -16 -6 -4 -8 -9 -6 -13 5 -9 -71 -9 -79 0 -4 4 -4 12 1 19
5 9 10 7 15 -7 7 -17 8 -17 8 4 1 18 7 22 30 22 17 0 32 -4 36 -9z"/>
<path d="M2184 1204 c-10 -8 -13 -13 -6 -9 6 3 12 1 12 -5 0 -7 11 -21 25 -32
14 -11 25 -26 25 -34 0 -20 -6 -18 -40 17 -16 18 -30 27 -30 21 0 -6 9 -16 20
-22 24 -13 26 -26 4 -34 -8 -3 -12 -2 -9 3 3 5 1 12 -5 16 -5 3 -10 -3 -10
-14 0 -23 28 -28 61 -11 26 14 24 29 -8 62 -15 15 -21 28 -14 28 7 0 9 5 5 12
-4 7 -3 8 5 4 6 -4 9 -12 6 -17 -4 -5 -1 -9 4 -9 17 0 13 27 -5 34 -20 8 -17
8 -40 -10z"/>
<path d="M2442 1210 c-33 -14 -47 -57 -27 -87 21 -31 41 -38 71 -25 34 16 30
33 -6 26 -29 -6 -30 -5 -30 31 0 36 1 36 30 30 23 -5 30 -3 30 8 0 8 -7 18
-16 21 -19 7 -23 7 -52 -4z m0 -50 c-4 -34 -1 -41 19 -49 22 -9 22 -10 4 -10
-38 -2 -56 38 -39 83 11 29 20 16 16 -24z"/>
<path d="M2539 1208 c-8 -7 -13 -12 -11 -11 9 4 63 -68 60 -78 -2 -7 -16 -13
-30 -13 -17 -1 -24 3 -21 11 3 7 0 13 -6 13 -6 0 -11 -9 -11 -20 0 -15 7 -20
28 -20 54 0 70 46 26 75 -15 9 -23 20 -18 24 12 8 16 31 6 31 -5 0 -15 -6 -23
-12z"/>
<path d="M861 1196 c19 -15 21 -96 2 -96 -7 0 -13 5 -13 11 0 5 -4 7 -10 4
-26 -16 -4 -24 65 -24 41 0 75 4 75 10 0 5 -4 9 -10 9 -5 0 -10 15 -10 34 0
41 -8 66 -22 66 -7 0 -7 -4 0 -12 5 -7 12 -32 14 -55 3 -34 0 -43 -12 -43 -11
0 -15 10 -14 43 1 40 1 41 -3 4 -3 -29 -8 -37 -21 -35 -23 4 -29 66 -8 74 26
10 18 21 -15 21 -25 0 -29 -3 -18 -11z"/>
<path d="M944 918 c-3 -4 2 -8 10 -8 11 0 16 -13 18 -50 4 -67 22 -69 26 -2 2
40 7 52 19 52 9 0 13 3 9 7 -10 10 -76 11 -82 1z"/>
<path d="M1642 853 c-2 -34 1 -54 6 -48 11 12 21 75 15 93 -10 27 -19 9 -21
-45z"/>
<path d="M1787 898 c-2 -7 -1 -33 3 -58 7 -45 14 -41 23 14 7 45 -13 78 -26
44z"/>
<path d="M1045 881 c-10 -9 -4 -70 7 -77 8 -5 9 3 5 29 -3 20 -3 36 1 36 18
-3 32 2 32 10 0 10 -37 11 -45 2z"/>
<path d="M1112 878 c-16 -16 -15 -53 2 -67 7 -6 24 -10 37 -9 21 2 24 7 24 43
0 37 -3 41 -25 43 -15 1 -31 -3 -38 -10z m48 -34 c0 -31 -29 -30 -40 1 -6 17
-3 21 16 23 20 1 24 -3 24 -24z"/>
<path d="M1205 881 c-10 -9 -4 -70 7 -77 8 -5 9 5 5 36 -3 24 -3 40 1 34 4 -5
16 -9 27 -8 18 1 20 -4 17 -34 -3 -24 -1 -33 7 -28 15 10 14 61 -2 74 -12 11
-53 13 -62 3z"/>
<path d="M1309 888 c-7 -32 -5 -41 12 -45 10 -3 19 -10 19 -15 0 -6 -9 -8 -21
-5 -13 3 -19 1 -16 -6 2 -7 15 -12 28 -12 30 0 33 34 4 53 -19 13 -19 13 3 8
15 -3 22 0 19 7 -3 10 -46 24 -48 15z"/>
<path d="M1380 830 c0 -33 4 -60 10 -60 6 0 10 9 10 19 0 14 5 18 19 14 22 -6
34 10 36 46 2 31 -10 41 -47 41 -27 0 -28 -1 -28 -60z m60 15 c0 -20 -5 -24
-24 -23 -32 3 -31 43 1 46 18 1 23 -3 23 -23z"/>
<path d="M1493 883 c-25 -10 -12 -21 21 -18 29 3 33 1 28 -17 -7 -27 -28 -33
-47 -14 -24 23 -30 20 -12 -6 15 -24 64 -32 60 -10 -2 6 2 12 7 12 14 0 13 33
-2 48 -12 12 -33 14 -55 5z"/>
<path d="M1572 846 c3 -46 21 -56 22 -13 2 28 23 50 38 41 4 -3 8 -1 8 5 0 6
-16 10 -35 9 -36 -1 -36 -2 -33 -42z"/>
<path d="M1696 875 c-18 -18 -20 -33 -7 -54 11 -17 68 -24 77 -10 3 5 0 9 -5
9 -6 0 -11 5 -11 11 0 5 5 7 10 4 6 -3 10 2 10 12 -1 16 -3 15 -20 -5 -14 -17
-25 -22 -40 -17 -17 5 -18 10 -9 27 7 13 17 18 30 15 10 -3 19 -1 19 5 0 5 6
6 13 2 6 -4 8 -3 4 1 -14 16 -55 16 -71 0z"/>
<path d="M1847 883 c-11 -10 -8 -71 3 -78 6 -4 10 12 10 39 0 47 -2 51 -13 39z"/>
<path d="M1896 874 c-9 -8 -16 -22 -16 -29 0 -18 27 -45 45 -45 16 0 45 27 45
41 0 43 -45 63 -74 33z m52 -16 c8 -8 9 -15 1 -25 -14 -16 -39 -17 -39 -2 0 5
-4 7 -10 4 -5 -3 -10 0 -10 9 0 24 38 34 58 14z"/>
<path d="M1980 851 c0 -22 5 -43 11 -47 8 -5 10 4 7 28 -3 30 -1 35 17 34 15
-1 21 -9 23 -34 4 -38 22 -33 22 7 0 35 -17 51 -52 51 -26 0 -28 -3 -28 -39z"/>
</g>
</svg>
